<?xml version="1.0" standalone="no"?>
<!DOCTYPE svg PUBLIC "-//W3C//DTD SVG 20010904//EN"
 "http://www.w3.org/TR/2001/REC-SVG-20010904/DTD/svg10.dtd">
<svg version="1.0" xmlns="http://www.w3.org/2000/svg"
 width="514.000000pt" height="514.000000pt" viewBox="0 0 514.000000 514.000000"
 preserveAspectRatio="xMidYMid meet">
<metadata>
Created by potrace 1.14, written by Peter Selinger 2001-2017
</metadata>
<g transform="translate(0.000000,514.000000) scale(0.100000,-0.100000)"
fill="#000000" stroke="none">
<path d="M625 4522 c-38 -9 -76 -44 -99 -92 -21 -44 -28 -63 -43 -125 -18 -74
-30 -230 -28 -354 3 -150 6 -183 30 -336 3 -17 25 -118 40 -179 14 -58 84
-255 97 -272 4 -6 9 -23 10 -37 1 -14 4 -24 7 -22 2 3 19 -23 36 -58 45 -86
56 -104 97 -168 l37 -57 -21 -53 c-27 -72 -75 -264 -84 -336 -3 -32 -8 -61
-10 -64 -10 -17 -18 -241 -11 -304 2 -16 0 -35 -5 -42 -5 -7 -5 -14 2 -18 15
-9 13 -38 -2 -30 -7 4 -6 1 2 -7 8 -7 15 -24 16 -38 2 -44 11 -104 24 -150 7
-25 14 -52 15 -60 1 -8 7 -28 14 -43 6 -16 9 -32 6 -37 -3 -5 -2 -10 3 -12 9
-4 68 -140 64 -150 -1 -5 1 -8 5 -8 5 0 21 -25 38 -55 16 -30 33 -55 37 -55 4
0 8 -7 8 -15 0 -8 4 -15 8 -15 4 0 16 -14 25 -30 31 -52 250 -263 262 -252 3
3 5 1 5 -4 0 -5 16 -18 36 -29 27 -15 34 -23 30 -39 -3 -12 -6 -27 -6 -34 0
-7 -3 -11 -7 -9 -13 8 -8 -156 7 -198 65 -195 261 -222 433 -61 21 19 36 37
35 38 -1 2 6 17 16 34 17 28 22 31 52 24 19 -4 34 -6 34 -3 0 3 6 1 13 -4 6
-6 19 -11 27 -12 8 0 26 -3 40 -5 14 -2 31 -5 38 -5 8 -1 10 -6 6 -13 -5 -10
-4 -10 6 -1 8 7 22 8 44 2 28 -8 109 -20 146 -22 8 0 18 -5 22 -11 6 -8 8 -8
8 1 0 6 8 10 18 8 9 -2 17 -4 17 -5 0 -10 446 -14 560 -6 106 8 202 20 307 40
49 9 71 10 79 2 9 -8 10 -8 5 2 -4 7 -2 12 6 13 14 1 30 3 78 14 30 7 32 5 27
-14 -3 -12 -2 -19 3 -16 4 3 11 -3 15 -13 3 -9 7 -19 8 -21 1 -3 20 -23 42
-46 130 -134 302 -141 387 -16 32 45 61 125 51 135 -4 3 -1 6 5 6 6 0 10 6 7
13 -2 6 -6 43 -9 81 -3 38 -10 74 -15 79 -6 6 -11 15 -11 19 0 12 77 48 85 40
5 -4 5 -2 2 4 -3 6 8 21 26 34 18 13 38 29 46 35 24 18 196 192 197 199 1 4
10 18 20 30 74 86 190 337 210 455 3 14 9 42 13 61 5 19 9 42 10 50 0 8 4 40
8 70 9 67 9 323 0 405 -8 80 -22 160 -42 239 -9 36 -13 71 -9 77 4 8 3 9 -4 5
-23 -14 -12 13 18 46 16 18 30 36 30 41 0 4 9 3 20 -3 11 -6 19 -14 16 -18 -7
-12 47 -6 77 8 18 9 31 26 39 52 6 21 16 38 23 38 6 0 22 12 36 26 21 22 24
35 23 97 0 69 -2 83 -18 118 -4 9 5 40 22 75 46 93 112 299 138 429 4 22 8 42
9 45 1 3 5 34 9 70 5 36 10 74 12 85 8 34 7 257 0 315 -12 95 -36 167 -67 198
-44 45 -103 57 -279 57 -189 0 -245 -6 -391 -44 -139 -36 -220 -66 -347 -130
-88 -43 -280 -162 -314 -194 -79 -73 -141 -118 -156 -114 -9 3 -56 19 -103 36
-47 16 -96 32 -110 34 -13 3 -42 10 -64 15 -22 6 -58 13 -80 17 -22 3 -47 7
-55 10 -42 11 -149 18 -275 18 -172 -1 -272 -11 -395 -39 -36 -9 -74 -17 -84
-19 -10 -3 -34 -9 -53 -16 -33 -11 -35 -10 -91 48 -87 88 -195 184 -243 215
-14 9 -33 23 -41 30 -35 32 -232 142 -318 178 -221 91 -383 127 -573 127 -56
0 -111 -2 -122 -5z m3937 -1594 c-3 -10 -10 -18 -17 -18 -7 0 -12 8 -11 18 2
9 0 19 -5 22 -4 3 0 21 9 40 l17 35 5 -40 c3 -22 4 -48 2 -57z m-78 -73 c3 -8
1 -15 -4 -15 -5 0 -7 -6 -4 -14 6 -16 -25 -31 -39 -17 -5 5 -2 19 8 35 20 30
30 33 39 11z"/>
<path d="M3265 700 c-3 -6 1 -7 9 -4 18 7 21 14 7 14 -6 0 -13 -4 -16 -10z"/>
</g>
</svg>
